<svg xmlns="http://www.w3.org/2000/svg" data-name="Layer 1" width="22" height="22" viewBox="0 0 512 512" id="History"><path  d="M246 240.657a75 75 0 1 0-75-75 75.085 75.085 0 0 0 75 75Zm0-135a60 60 0 1 1-60 60 60.068 60.068 0 0 1 60-60Zm228.5-56h-8.799v-35h8.799a7.5 7.5 0 1 0 0-15H337.587a7.5 7.5 0 0 0 0 15h8.799v35H37.5A37.542 37.542 0 0 0 0 87.157v295a37.542 37.542 0 0 0 37.5 37.5h156.121a54.438 54.438 0 0 1-5.918 36.628l-16.415 29.324a17.5 17.5 0 0 0 15.27 26.048h138.884a17.5 17.5 0 0 0 15.27-26.048l-16.415-29.324a54.438 54.438 0 0 1-5.918-36.628H474.5a37.542 37.542 0 0 0 37.5-37.5v-295a37.542 37.542 0 0 0-37.5-37.5Zm-113.114-35H450.7v17.598h-89.315Zm-.004 44.885c.003-.076.004-.152.004-.228V47.255H450.7v12.06q0 .106.003.213a35.704 35.704 0 0 1-1.93 12.828c-5.233 15.003-19.301 21.968-25.106 24.267a7.5 7.5 0 0 0 .038 13.962c4.522 1.761 19.691 8.7 25.071 24.04a35.344 35.344 0 0 1 1.927 12.808l-.003.224v12.06h-89.315v-12.06a8.5 8.5 0 0 0-.003-.222 35.408 35.408 0 0 1 1.927-12.81c5.419-15.463 20.76-22.424 25.333-24.19a7.5 7.5 0 0 0-.017-14c-4.57-1.751-19.9-8.665-25.317-24.093a35.258 35.258 0 0 1-1.927-12.8Zm89.32 115.174v17.599h-89.316v-17.599Zm-123.078 318.22a2.5 2.5 0 0 1-2.182 3.72H186.558a2.5 2.5 0 0 1-2.182-3.72l16.415-29.325a69.514 69.514 0 0 0 8.027-43.954h94.364a69.514 69.514 0 0 0 8.027 43.954ZM497 382.155a22.526 22.526 0 0 1-22.5 22.5h-437a22.526 22.526 0 0 1-22.5-22.5v-32.5h482Zm0-47.5H15v-247.5a22.526 22.526 0 0 1 22.5-22.5h309.026a49.433 49.433 0 0 0 2.63 12.656c4.392 12.506 12.93 20.83 20.757 26.143-7.827 5.333-16.37 13.682-20.76 26.21a50.337 50.337 0 0 0-2.767 18.1v44.55h-8.8a7.5 7.5 0 0 0 0 15H474.5a7.5 7.5 0 0 0 0-15h-8.799v-44.55a50.245 50.245 0 0 0-2.77-18.103c-4.373-12.475-12.874-20.794-20.645-26.104 7.774-5.358 16.282-13.737 20.65-26.261a49.894 49.894 0 0 0 2.619-12.64h8.945a22.526 22.526 0 0 1 22.5 22.5Zm-267.647-134.95a10.482 10.482 0 0 0 10.787-.538l37.013-24.786a10.5 10.5 0 0 0 0-17.45l-37.013-24.786a10.5 10.5 0 0 0-16.343 8.725v49.572a10.481 10.481 0 0 0 5.556 9.263Zm9.444-50.406 24.427 16.357-24.427 16.357ZM429.5 281.157H183.05a30.004 30.004 0 0 0-58.1 0H82.5a7.5 7.5 0 0 0 0 15h42.45a30.004 30.004 0 0 0 58.1 0H429.5a7.5 7.5 0 0 0 0-15Zm-275.5 22.5a15 15 0 1 1 15-15 15.016 15.016 0 0 1-15 15Z" class="color272a33 svgShape"></path></svg>