<svg xmlns="http://www.w3.org/2000/svg" width="22" height="22" viewBox="0 0 128 128" id="App"><path d="M111 25c3.3 0 6 2.7 6 6v66c0 3.3-2.7 6-6 6H17c-3.3 0-6-2.7-6-6V31c0-3.3 2.7-6 6-6h94m0-4H17c-5.5 0-10 4.5-10 10v66c0 5.5 4.5 10 10 10h94c5.5 0 10-4.5 10-10V31c0-5.5-4.5-10-10-10z" class="color2c3e50 svgShape"></path><path d="M111.5 44H17c-.6 0-1-.4-1-1s.4-1 1-1h94.5c.6 0 1 .4 1 1s-.4 1-1 1z" class="color2c3e50 svgShape"></path><circle cx="21.5" cy="33.8" r="3" class="color2c3e50 svgShape"></circle><circle cx="30.5" cy="33.8" r="3" class="color2c3e50 svgShape"></circle><circle cx="39.5" cy="33.8" r="3" class="color2c3e50 svgShape"></circle><path fill="#df6258" d="M51.8 81.8 34.2 74v-2.5l17.6-8.8V67l-12.2 5.6 12.2 5v4.2zm18.5-20.5L62 83.6h-4.2l8.3-22.2h4.2zm5.9 16.3 12.2-5L76.2 67v-4.3l17.6 8.8V74l-17.6 7.8v-4.2z" class="color3b97d3 svgShape"></path></svg>