<svg xmlns="http://www.w3.org/2000/svg" width="22" height="22" viewBox="0 0 128 128" id="CardPayment"><path d="M62.8125,23H90.915a3.0088,3.0088,0,0,0,3.011-3V18a3.0088,3.0088,0,0,0-3.011-3H62.8125a3.0088,3.0088,0,0,0-3.011,3v2A3.0088,3.0088,0,0,0,62.8125,23Zm-1.0036-5a1.0027,1.0027,0,0,1,1.0036-1H90.915a1.0028,1.0028,0,0,1,1.0037,1v2a1.0028,1.0028,0,0,1-1.0037,1H62.8125a1.0027,1.0027,0,0,1-1.0036-1ZM26.9816,74a1.005,1.005,0,0,1-1.0036,1H23.9706a1,1,0,1,1,0-2H25.978A1.005,1.005,0,0,1,26.9816,74Zm-12.0439-.13a.3763.3763,0,0,1-.01.1494,1.0021,1.0021,0,0,1-.9836.86.7812.7812,0,0,1-.1509-.01,13.0449,13.0449,0,0,1-2.1176-.48,1.0048,1.0048,0,0,1-.6425-1.26,1.0174,1.0174,0,0,1,1.2546-.65,10.43,10.43,0,0,0,1.7868.41A1.0011,1.0011,0,0,1,14.9377,73.87ZM20.96,74a1.0051,1.0051,0,0,1-1.0037,1H17.9487a1,1,0,1,1,0-2H19.956A1.0051,1.0051,0,0,1,20.96,74Zm18.0659,0a1.0051,1.0051,0,0,1-1.0037,1H36.0146a1,1,0,1,1,0-2h2.0073A1.0051,1.0051,0,0,1,39.0256,74Zm-6.022,0A1.0051,1.0051,0,0,1,32,75H29.9926a1,1,0,1,1,0-2H32A1.0051,1.0051,0,0,1,33.0036,74ZM9.0363,70.81a.9853.9853,0,0,1,.4013.8,1.0009,1.0009,0,0,1-1.0036,1,1.0129,1.0129,0,0,1-.6023-.1992A13.9544,13.9544,0,0,1,6.2056,70.98a1.009,1.009,0,0,1-.271-.72.9493.9493,0,0,1,.3112-.7,1.0313,1.0313,0,0,1,1.4153.03A10.5693,10.5693,0,0,0,9.0363,70.81ZM45.0475,74a1.005,1.005,0,0,1-1.0036,1H42.0365a1,1,0,1,1,0-2h2.0074A1.005,1.005,0,0,1,45.0475,74ZM5.6038,66.5693a.9787.9787,0,0,1,.09.41,1.0189,1.0189,0,0,1-.5822.92A1.0563,1.0563,0,0,1,4.69,67.99a1.01,1.01,0,0,1-.9134-.58,13.8428,13.8428,0,0,1-.7425-2.04.99.99,0,0,1,.7126-1.2207,1.0245,1.0245,0,0,1,1.2344.7,10.3011,10.3011,0,0,0,.6121,1.72Zm95.5988-56.51a1.0281,1.0281,0,0,1-.1608-.54.9838.9838,0,0,1,.4617-.84,1.0391,1.0391,0,0,1,1.3952.3,13.3264,13.3264,0,0,1,1.0135,1.91A1.0013,1.0013,0,0,1,103.39,12.2a1.1072,1.1072,0,0,1-.4013.08,1.0078,1.0078,0,0,1-.9233-.61A10.8153,10.8153,0,0,0,101.2026,10.06Zm2.66,4.09a.9957.9957,0,0,1,1.0737.9307c.02.3.03.6.03.92v1.1494a1.0037,1.0037,0,0,1-2.0073,0V16c0-.25-.01-.5205-.03-.78v-.08A1.004,1.004,0,0,1,103.8622,14.1494ZM78.8711,4a1.0048,1.0048,0,0,1,1.0037-1h2.0073a1,1,0,1,1,0,2H79.8748A1.0048,1.0048,0,0,1,78.8711,4Zm6.022,0a1.0047,1.0047,0,0,1,1.0036-1H87.904a1,1,0,1,1,0,2H85.8967A1.0047,1.0047,0,0,1,84.8931,4ZM90.915,4a1.0048,1.0048,0,0,1,1.0037-1,12.8155,12.8155,0,0,1,2.1578.18.94.94,0,0,1,.6522.4.9912.9912,0,0,1-.813,1.58.9046.9046,0,0,1-.1705-.0108A11.1128,11.1128,0,0,0,91.9187,5,1.0048,1.0048,0,0,1,90.915,4Zm5.7711,1.46a.9657.9657,0,0,1,.12-.47,1.03,1.03,0,0,1,1.3653-.4,13.55,13.55,0,0,1,1.8167,1.2.999.999,0,0,1-.6224,1.7793.9715.9715,0,0,1-.6224-.21A10.9925,10.9925,0,0,0,97.208,6.35,1.0191,1.0191,0,0,1,96.6861,5.46ZM18.6514,33h8.0293a5.0151,5.0151,0,0,0,5.0183-5V20a5.0151,5.0151,0,0,0-5.0183-5H18.6514a5.0151,5.0151,0,0,0-5.0183,5v8A5.0151,5.0151,0,0,0,18.6514,33ZM15.64,20a3.0088,3.0088,0,0,1,3.011-3h8.0293a3.0088,3.0088,0,0,1,3.011,3v1h-3.011a1,1,0,1,0,0,2h3.011v2h-3.011a1,1,0,1,0,0,2h3.011v1a3.0088,3.0088,0,0,1-3.011,3H18.6514a3.0088,3.0088,0,0,1-3.011-3V27h3.011a1,1,0,1,0,0-2H15.64V23h3.011a1,1,0,1,0,0-2H15.64Zm5.6839,18h25.43a1,1,0,1,1,0,2h-25.43a1,1,0,1,1,0-2Zm-7.6912,1a1.0016,1.0016,0,0,1,1.0037-1H17.31a1,1,0,1,1,0,2H14.6368A1.0016,1.0016,0,0,1,13.6331,39Zm34.1245,5a1.0016,1.0016,0,0,1-1.0037,1H41.3318a1,1,0,1,1,0-2h5.4221A1.0016,1.0016,0,0,1,47.7576,44ZM13.6331,44a1.0016,1.0016,0,0,1,1.0037-1h22.68a1,1,0,1,1,0,2h-22.68A1.0016,1.0016,0,0,1,13.6331,44ZM123.2125,71.6094a.8731.8731,0,0,1-.01.16V71.78q-.1506.9888-.3014,1.98a1,1,0,0,1-.9835.84.8261.8261,0,0,1-.16-.01,1.0014,1.0014,0,0,1-.8331-1.14c.1-.65.2-1.3106.2911-1.9707v-.01a1.0344,1.0344,0,0,1,1.1438-.84A1.0079,1.0079,0,0,1,123.2125,71.6094ZM120.1011,36.49a1.0218,1.0218,0,0,1-.01-.75,1.0084,1.0084,0,0,1,.542-.5507,1.03,1.03,0,0,1,1.3149.53c.2509.6.5116,1.24.7527,1.92a1.0011,1.0011,0,0,1-1.8868.67c-.2308-.63-.4719-1.24-.713-1.81Zm3.9044,29.17a.58.58,0,0,1-.01.13c-.08.68-.1706,1.38-.2411,1.99a1.015,1.015,0,0,1-1.0037.88.4563.4563,0,0,1-.1206-.0108.9566.9566,0,0,1-.6621-.38.9791.9791,0,0,1-.2107-.7392c.1-.75.1706-1.3809.2406-1.9707a1.0075,1.0075,0,0,1,2.0074.1006Zm-.2206-18.94a1.0107,1.0107,0,0,1,1.0939.91c.05.68.1,1.36.1205,2.04a1,1,0,0,1-.9634,1.04h-.03a.997.997,0,0,1-1.0037-.96c-.03-.63-.07-1.28-.1206-1.94a.25.25,0,0,1-.01-.08A1.02,1.02,0,0,1,123.7849,46.72Zm-1.1041-5.89a1.01,1.01,0,0,1,1.2041.7392c.1608.65.3112,1.33.4318,2a.9951.9951,0,0,1-.793,1.1709,1.2558,1.2558,0,0,1-.1906.02,1.0079,1.0079,0,0,1-.9836-.82c-.1205-.63-.2607-1.27-.4116-1.9a.9063.9063,0,0,1-.03-.23A.9958.9958,0,0,1,122.6808,40.83Zm2.2984,12.87v.06c-.02.64-.06,1.29-.1,2.01a.9984.9984,0,0,1-.9939.9405h-.06a1.0069,1.0069,0,0,1-.9439-1.0606c.03-.6494.0706-1.3193.1-1.98a.9991.9991,0,0,1,1.9975.03Zm-.3812,6.01v.07c-.05.64-.1108,1.3-.1809,2.01a.9928.9928,0,0,1-.9938.9h-.1a1.0077,1.0077,0,0,1-.9037-1.09c.06-.64.1206-1.3193.1808-1.98a1,1,0,0,1,1.9976.09Zm-9.46,40.0986h0l-1.6506-.1645c2.6165-10.1039,6.8187-28.74,7.5359-46.6041.9225-22.97-16.5637-32.9108-20.0723-34.6686V16a9.0266,9.0266,0,0,0-9.0329-9H15.64a9.0267,9.0267,0,0,0-9.0329,9V62A9.0267,9.0267,0,0,0,15.64,71h56.238a36.8165,36.8165,0,0,0,3.3691,6.1436c5.5551,8.1554,6.7477,15.3539,6.905,19.3784l-3.4167-.34a3.02,3.02,0,0,0-3.2383,2.334l-5.6353,25.2676a1,1,0,0,0,.98,1.2168h44.1611a1.0019,1.0019,0,0,0,1-.9131l1.8358-21.0332A3.0136,3.0136,0,0,0,115.1382,99.8086ZM83.5551,54H98.9443v5.9873C90.665,59.7819,86.348,57.0252,83.5551,54ZM15.64,9H91.9187a7.021,7.021,0,0,1,7.0256,7V52H81.9152c-.474-.6421-.909-1.2751-1.3166-1.875-1.6069-2.3652-2.9948-4.4072-5.4819-4.6191-1.7025-.1446-3.24.8095-4.344,2.6865A12.9435,12.9435,0,0,0,69.4014,52H8.6148V16A7.0211,7.0211,0,0,1,15.64,9ZM8.6148,54H69.0839a29.13,29.13,0,0,0-.0386,6H8.6148ZM15.64,69a7.0211,7.0211,0,0,1-7.0256-7H69.29a36.5111,36.5111,0,0,0,1.796,7Zm61.2685,7.02c-6.9718-10.2353-7.03-22.3535-4.4043-26.8174a2.8491,2.8491,0,0,1,2.441-1.7051c1.4619.125,2.421,1.4375,3.9907,3.7481C81.8458,55.5283,86.2432,62,99.948,62a1.0015,1.0015,0,0,0,1.0036-1V20.6279A34.6858,34.6858,0,0,1,119.0185,52.96c-.74,18.4209-5.3943,38.1845-7.55,46.4829l-27.3021-2.72C84.0321,91.795,82.6143,84.3971,76.9089,76.0205ZM114.0826,123H72.093l5.3638-24.0508a.9966.9966,0,0,1,1.08-.7773l36.4023,3.6269h.0005a1.0043,1.0043,0,0,1,.9,1.0811Zm-46.8443-.8506a.9071.9071,0,0,1-.03.2305l-.4013,1.84a1.01,1.01,0,0,1-.9836.78,1.5366,1.5366,0,0,1-.221-.02,1.0044,1.0044,0,0,1-.6224-.4395,1.0185,1.0185,0,0,1-.14-.76l.4112-1.8408a1.0315,1.0315,0,0,1,1.2046-.76A1.0074,1.0074,0,0,1,67.2383,122.1494Zm2.8-21.68.4415-1.96a1.0094,1.0094,0,0,1,1.1943-.75.992.992,0,0,1,.7631,1.19l-.4318,1.9492a1.0093,1.0093,0,0,1-.9835.78.8453.8453,0,0,1-.2206-.0195A1.0123,1.0123,0,0,1,70.0386,100.47Zm.3313,3.14a.9873.9873,0,0,1,.7831.9707.8873.8873,0,0,1-.02.23l-.4317,1.95a1.0082,1.0082,0,0,1-.9836.78,1.4082,1.4082,0,0,1-.221-.0205,1.0063,1.0063,0,0,1-.7626-1.2l.4416-1.9492A1.0161,1.0161,0,0,1,70.37,103.6094ZM68.5434,116.3a1.6489,1.6489,0,0,1-.02.22l-.4416,1.95a1.0059,1.0059,0,0,1-.9737.79.8175.8175,0,0,1-.2206-.03,1.0135,1.0135,0,0,1-.6326-.4395.9841.9841,0,0,1-.13-.75l.4318-1.95a1.0221,1.0221,0,0,1,1.2041-.76A.9873.9873,0,0,1,68.5434,116.3Zm1.3045-5.86a1.4856,1.4856,0,0,1-.02.2207l-.4416,1.96a1.0072,1.0072,0,0,1-.9738.7793.8574.8574,0,0,1-.2205-.0293.9923.9923,0,0,1-.763-1.19l.442-1.95a1.0077,1.0077,0,0,1,1.1943-.76A.9962.9962,0,0,1,69.8479,110.44ZM83.8894,105a5,5,0,1,0,5.0183,5A5.0151,5.0151,0,0,0,83.8894,105Zm0,8a3,3,0,1,1,3.011-3A3.0088,3.0088,0,0,1,83.8894,113Z" data-name="Layer 2"  class="color000000 svgShape"></path></svg>