
<svg  version="1.1" id="Layer_1" xmlns="http://www.w3.org/2000/svg" xmlns:xlink="http://www.w3.org/1999/xlink" 
width="24" height="24"
	 viewBox="0 0 496 496" xml:space="preserve">
<g>
	<g>
		<g>
			<path d="M408,48c-9.312,0-17.888,3.192-24.696,8.552C379.808,38.048,363.512,24,344,24c-9.312,0-17.888,3.192-24.696,8.552
				C315.808,14.048,299.512,0,280,0c-19.512,0-35.808,14.048-39.304,32.552C233.888,27.192,225.312,24,216,24
				c-22.056,0-40,17.944-40,40v193.872l-37.392-65.44C129.992,177.368,113.856,168,96.504,168C69.76,168,48,189.76,48,216.504v4.28
				c0,8.808,2.392,17.432,6.912,24.952l90.224,150.384l54.856,55.2V496h16v-51.312l-57.648-57.648l-43.448-72.424l21.016-13.136
				L195.928,384H232v112h16V384h112v112h16V368l40-53.336V144h16v260.688l-40,40V496h16v-44.688l40-40V88
				C448,65.944,430.056,48,408,48z M408,64c10.416,0,19.216,6.712,22.528,16H385.48C388.784,70.712,397.584,64,408,64z M344,40
				c13.232,0,24,10.768,24,24h-48C320,50.768,330.768,40,344,40z M320,80h48v32h-48V80z M256,40c0-13.232,10.768-24,24-24
				s24,10.768,24,24v8h-48V40z M256,64h48v32h-48V64z M192,64c0-13.232,10.768-24,24-24s24,10.768,24,24v16h-48V64z M192,96h48v32
				h-48V96z M68.632,237.496C65.6,232.464,64,226.68,64,220.784v-4.28C64,198.576,78.576,184,96.504,184
				c11.632,0,22.448,6.272,28.216,16.376l11.048,19.336L79.184,255.08L68.632,237.496z M106.672,300.896L87.416,268.8l56.296-35.184
				l18.584,32.52L106.672,300.896z M240,368h-8h-27.928l-54.552-75.016l20.72-12.952L176,290.12V296h16V144h16v170.296L241.568,368
				H240z M272,368h-11.568L224,309.704V144h16v96h16V112h16V368z M336,368h-48V112h16v128h16V128h16V368z M400,309.336L356,368h-4
				V128h16v112h16v-96h16V309.336z M432,128h-48V96h48V128z"/>
			<path d="M264,448h80v-48h-80V448z M280,416h48v16h-48V416z"/>
			<rect x="264" y="464" width="16" height="32"/>
			<rect x="296" y="464" width="16" height="32"/>
			<rect x="328" y="464" width="16" height="32"/>
		</g>
	</g>
</g>
</svg>