<svg xmlns="http://www.w3.org/2000/svg" width="30" height="30" id="dollar"><path d="M16 2C8.274 2 2 8.274 2 16s6.274 14 14 14 14-6.274 14-14S23.726 2 16 2zm0 1c7.186 0 13 5.814 13 13s-5.814 13-13 13S3 23.186 3 16 8.814 3 16 3zm0 3C10.483 6 6 10.483 6 16c0 4.432 2.888 8.199 6.889 9.508a.5.5 0 0 0 .31-.951A9.002 9.002 0 0 1 7 16c0-4.976 4.024-9 9-9a9 9 0 0 1 8.125 5.125.5.5 0 1 0 .902-.432A10.006 10.006 0 0 0 16 6zm-6.893.299a.5.5 0 0 0-.312.105A11.984 11.984 0 0 0 4 16c0 6.622 5.379 12 12 12s12-5.378 12-12a.5.5 0 1 0-1 0c0 6.081-4.919 11-11 11S5 22.081 5 16c0-3.6 1.727-6.79 4.396-8.797a.5.5 0 0 0-.289-.904zM16 8c-4.412 0-8 3.588-8 8a.5.5 0 1 0 1 0c0-3.872 3.128-7 7-7s7 3.128 7 7a6.986 6.986 0 0 1-2.766 5.576.5.5 0 1 0 .606.795A7.993 7.993 0 0 0 24 16c0-4.412-3.588-8-8-8zm-.354 3v1.158c-.314.039-.599.114-.853.227-.254.112-.47.256-.65.431a1.859 1.859 0 0 0-.41.621 2.166 2.166 0 0 0-.14.79c0 .312.055.587.16.826.112.238.268.448.472.63.208.183.458.344.75.481.295.133.628.25.998.352.277.09.513.187.707.285.198.098.358.204.478.32.125.116.214.24.27.373.055.133.084.28.084.438 0 .19-.034.36-.104.515-.07.151-.172.282-.306.39-.13.106-.29.187-.485.247a2.295 2.295 0 0 1-1.18.016 1.255 1.255 0 0 1-.478-.243 1.237 1.237 0 0 1-.346-.468c-.088-.197-.13-.444-.13-.743h-1.221c0 .397.062.738.187 1.022.125.28.29.515.498.701.213.186.456.328.729.426.273.098.554.164.845.195V21h.965v-1.01c.347-.035.659-.105.936-.21.277-.106.513-.247.707-.423.194-.175.345-.382.451-.62.106-.243.158-.513.158-.815 0-.309-.05-.581-.152-.817a1.782 1.782 0 0 0-.451-.62 2.88 2.88 0 0 0-.735-.47 6.748 6.748 0 0 0-1.005-.369 5.823 5.823 0 0 1-.749-.289 2.283 2.283 0 0 1-.486-.32 1.03 1.03 0 0 1-.27-.369 1.558 1.558 0 0 1 0-.957c.056-.151.136-.28.243-.385a1.14 1.14 0 0 1 .41-.252c.162-.06.352-.09.574-.09.213 0 .402.04.569.121.166.081.305.193.416.336.11.144.194.316.25.512.06.197.09.412.09.647h1.214c0-.713-.179-1.273-.535-1.684-.351-.414-.849-.664-1.496-.752V11h-.979z" color="#000" font-family="sans-serif" font-weight="400" overflow="visible" style="line-height:normal;text-indent:0;text-align:start;text-decoration-line:none;text-decoration-style:solid;text-decoration-color:#000;text-transform:none;block-progression:tb;white-space:normal;isolation:auto;mix-blend-mode:normal;solid-color:#000;solid-opacity:1"></path></svg>