<svg xmlns="http://www.w3.org/2000/svg" width="32" height="32"  data-name="Layer 2" viewBox="0 0 100 100" id="finance-report"><path d="M57.25,31.45V8.72a1,1,0,0,0-1-1H15.63a1,1,0,0,0-1,1V31.45a1,1,0,0,0,1,1H56.25A1,1,0,0,0,57.25,31.45Zm-2-1H16.63V9.72H55.25Z"></path><path d="M20.11,24a3.69,3.69,0,0,1,3.68,3.69,1,1,0,0,0,1,1H47.08a1,1,0,0,0,1-1A3.69,3.69,0,0,1,51.77,24a1,1,0,0,0,1-1V17.19a1,1,0,0,0-1-1,3.69,3.69,0,0,1-3.69-3.69,1,1,0,0,0-1-1H24.79a1,1,0,0,0-1,1,3.69,3.69,0,0,1-3.68,3.69,1,1,0,0,0-1,1V23A1,1,0,0,0,20.11,24Zm1-5.88a5.73,5.73,0,0,0,4.6-4.6H46.17a5.7,5.7,0,0,0,4.6,4.6v4a5.68,5.68,0,0,0-4.6,4.6H25.71a5.7,5.7,0,0,0-4.6-4.6Z"></path><path d="M35.94 25.54a5.32 5.32 0 0 0 5.14-5.46 5.15 5.15 0 1 0-10.28 0A5.31 5.31 0 0 0 35.94 25.54zm0-8.91a3.31 3.31 0 0 1 3.14 3.45 3.15 3.15 0 1 1-6.28 0A3.31 3.31 0 0 1 35.94 16.63zM23.21 37.26a1 1 0 0 0 0-2h-2.1v-.88a1 1 0 0 0-2 0v.88h-.55a2.9 2.9 0 0 0 0 5.76h.55v1.77H17a1 1 0 1 0 0 2h2.1v.88a1 1 0 0 0 2 0v-.88h.55a2.91 2.91 0 0 0 0-5.77h-.55V37.26zM21.66 41c.26 0 .55.38.55.88s-.29.89-.55.89h-.55V41zm-2.55-2h-.55c-.26 0-.55-.38-.55-.88s.29-.88.55-.88h.55zM34 37.26a1 1 0 0 0 0-2h-2.1v-.88a1 1 0 0 0-2 0v.88h-.56a2.9 2.9 0 0 0 0 5.76h.56v1.77H27.77a1 1 0 0 0 0 2h2.11v.88a1 1 0 0 0 2 0v-.88h.55a2.91 2.91 0 0 0 0-5.77h-.55V37.26zM32.43 41c.26 0 .55.38.55.88s-.29.89-.55.89h-.55V41zm-2.55-2h-.56c-.26 0-.55-.38-.55-.88s.29-.88.55-.88h.56zM44.74 37.26a1 1 0 0 0 0-2h-2.1v-.88a1 1 0 0 0-2 0v.88h-.55a2.9 2.9 0 0 0 0 5.76h.55v1.77h-2.1a1 1 0 0 0 0 2h2.1v.88a1 1 0 0 0 2 0v-.88h.55a2.91 2.91 0 0 0 0-5.77h-.55V37.26zM43.19 41c.26 0 .55.38.55.88s-.29.89-.55.89h-.55V41zm-2.55-2h-.55c-.26 0-.55-.38-.55-.88s.29-.88.55-.88h.55z"></path><path d="M13.36,13.16l-4-6.91-4,6.91h3V87.5a1,1,0,0,0,1,1H86.84v3l6.91-4-6.91-4v3H10.38V13.16Z"></path><path d="M14.63 61.68a1 1 0 0 0 .94 1c.4 0 1.13.06 2.17.06 8.25 0 37-2.18 62.13-30.05l4.81 3.61a1 1 0 0 0 1 .13 1 1 0 0 0 .6-.8l2.48-20.57a1 1 0 0 0-1.38-1L68.31 22.16a1 1 0 0 0-.6.8 1 1 0 0 0 .39.92l4.59 3.43C46.59 55.66 16.27 53.79 16 53.78a2.75 2.75 0 0 0-.39 0 1 1 0 0 0-1 1zm2-5.88c5.13.09 33.71-.64 58.29-28a1 1 0 0 0 .25-.76 1 1 0 0 0-.4-.71l-4.08-3.05 15.87-6.78L84.49 33.66l-4.15-3.12a1 1 0 0 0-1.35.14C54.22 58.57 25.85 60.74 17.74 60.74l-1.11 0zM14.63 81.25a1 1 0 0 0 1 1h12.5a1 1 0 0 0 1-1V68.75a1 1 0 0 0-1-1H15.63a1 1 0 0 0-1 1zm2-11.5h10.5v10.5H16.63z"></path><path d="M34.38 61.5a1 1 0 0 0-1 1V81.25a1 1 0 0 0 1 1h12.5a1 1 0 0 0 1-1V62.5a1 1 0 0 0-1-1zm11.5 18.75H35.38V63.5h10.5zM53.13 55.25a1 1 0 0 0-1 1v25a1 1 0 0 0 1 1h12.5a1 1 0 0 0 1-1v-25a1 1 0 0 0-1-1zm11.5 25H54.13v-23h10.5zM84.38 42.75H71.88a1 1 0 0 0-1 1v37.5a1 1 0 0 0 1 1h12.5a1 1 0 0 0 1-1V43.75A1 1 0 0 0 84.38 42.75zm-1 37.5H72.88V44.75h10.5z"></path></svg>