<svg xmlns="http://www.w3.org/2000/svg" width="22" height="22"   viewBox="0 0 64 64" id="fingerprint"><g data-name="finger print" class="color000000 svgShape"><path d="M39.67 20.73a1 1 0 0 0 0 1.42A10.86 10.86 0 0 1 43 30v6.22a29 29 0 0 1-1 7.61 1 1 0 0 0 .71 1.23l.26 0a1 1 0 0 0 1-.74 31.3 31.3 0 0 0 1-8.13V30a12.92 12.92 0 0 0-3.91-9.29A1 1 0 0 0 39.67 20.73zM21 36.22V30a11 11 0 0 1 15.75-9.93 1 1 0 1 0 .86-1.8A13 13 0 0 0 19 30v6.22a5.74 5.74 0 0 1-1.7 4.09l-.58.58a1 1 0 0 0 0 1.42 1 1 0 0 0 1.42 0l.58-.59A7.76 7.76 0 0 0 21 36.22z" class="color000000 svgShape"></path><path d="M40 32a1 1 0 0 0-1 1v3.22A25.54 25.54 0 0 1 35 50a1 1 0 0 0 .3 1.38 1 1 0 0 0 .54.16 1 1 0 0 0 .84-.46A27.51 27.51 0 0 0 41 36.22V33A1 1 0 0 0 40 32zM23 30v3a1 1 0 0 0 2 0V30a7 7 0 0 1 14-.87 1 1 0 0 0 2-.26A9 9 0 0 0 23 30zM24 36a1 1 0 0 0-1.07.93 9.77 9.77 0 0 1-2.84 6.21L18.88 44.4a1 1 0 1 0 1.42 1.4l1.25-1.25A11.77 11.77 0 0 0 25 37.07 1 1 0 0 0 24 36zM35.71 40a1 1 0 0 0-1.18.78 21.58 21.58 0 0 1-4.69 9.55 1 1 0 0 0 1.52 1.3 23.65 23.65 0 0 0 5.13-10.44A1 1 0 0 0 35.71 40z" class="color000000 svgShape"></path><path d="M29,30a3,3,0,1,1,6,0v6.22c0,.24,0,.47,0,.7a1,1,0,0,0,2,.16c0-.29,0-.57,0-.86V30a5,5,0,0,0-10,0v6.22A13.65,13.65,0,0,1,23,46a1,1,0,0,0,0,1.42,1,1,0,0,0,1.42,0A15.69,15.69,0,0,0,29,36.22Z" class="color000000 svgShape"></path><path d="M30 46.69a19.7 19.7 0 0 0 3-10.47V30a1 1 0 0 0-2 0v6.22a17.66 17.66 0 0 1-2.7 9.41A1 1 0 0 0 30 46.69zM20 21a15 15 0 0 1 27 9v5a1 1 0 0 0 2 0V30A17 17 0 0 0 18.39 19.8 1 1 0 0 0 20 21zM17.61 22.92a1 1 0 0 0-1.3.54A16.86 16.86 0 0 0 15 30v5a1 1 0 0 0 2 0V30a15.13 15.13 0 0 1 1.15-5.78A1 1 0 0 0 17.61 22.92z" class="color000000 svgShape"></path><polygon points="11 11 18 11 18 7 7 7 7 18 11 18 11 11" class="color000000 svgShape"></polygon><polygon points="46 7 46 11 53 11 53 18 57 18 57 7 46 7" class="color000000 svgShape"></polygon><polygon points="53 53 46 53 46 57 57 57 57 46 53 46 53 53" class="color000000 svgShape"></polygon><polygon points="11 46 7 46 7 57 18 57 18 53 11 53 11 46" class="color000000 svgShape"></polygon></g></svg>