<svg xmlns="http://www.w3.org/2000/svg" width="24" height="24" viewBox="0 0 80 80" id="pay"><path d="m22.002 67.067 17.314 4.612a9.973 9.973 0 0 0 7.318-.864l25.358-13.684a5.74 5.74 0 0 0 2.75-6.736c-.456-1.475-1.462-2.678-2.831-3.39s-2.933-.84-4.403-.365l-16.322 5.28a6.024 6.024 0 0 0-2.301-1.402l-14.023-4.675c-2.001-.667-3.973-.718-5.88-.768l-6.98-.052v-3.008H5v28h17.002v-2.948zm6.157-18.014.718.02c1.762.046 3.283.086 4.72.565l14.023 4.675a2.025 2.025 0 0 1 1.31 2.487 2.022 2.022 0 0 1-2.462 1.405L30.472 54.06l-1.003 3.872 15.996 4.144a6.128 6.128 0 0 0 1.54.197 5.994 5.994 0 0 0 5.768-4.368c.228-.79.286-1.59.199-2.359l15.768-5.101a1.718 1.718 0 0 1 1.328.11c.413.215.716.578.854 1.022a1.732 1.732 0 0 1-.83 2.032L44.734 67.295a5.974 5.974 0 0 1-4.39.519l-18.342-4.886V49.019l6.157.034zM18.002 66.015H9v-20h9.002v20zm8.014-28 44-.002V8.058l-44-.077v30.034zm4-26.027 36 .063v21.962l-36 .002V11.988z"></path><path d="M48.016 18.313c.885 0 1.606.604 1.606 1.346h4c0-2.275-1.501-4.218-3.606-4.988v-1.035h-4v1.035c-2.106.77-3.607 2.713-3.607 4.988 0 2.948 2.515 5.347 5.607 5.347.885 0 1.606.604 1.606 1.346 0 .743-.72 1.347-1.606 1.347s-1.607-.604-1.607-1.347h-4c0 2.276 1.501 4.219 3.607 4.989v1.035h4v-1.035c2.105-.77 3.606-2.713 3.606-4.989 0-2.948-2.515-5.346-5.606-5.346-.886 0-1.607-.604-1.607-1.347 0-.742.72-1.346 1.607-1.346zM57.671 21.013h4.328v4h-4.328zM34.032 21.013h4.328v4h-4.328z"></path></svg>