<svg xmlns="http://www.w3.org/2000/svg" data-name="Layer 1" width="22" height="22" viewBox="0 0 66 66" id="support"><path d="M59.85,52.26a12,12,0,0,0-7.23-10.55l-9.79-3.93L41.14,35V33.38a13.54,13.54,0,0,0,2.6-4.23,21.08,21.08,0,0,0,.85-3.38l.22,0H45a2,2,0,0,0,1.91-1.49H47l1,.11h.14a1.46,1.46,0,0,0,1-.36A1.61,1.61,0,0,0,49.65,23L50,18.82a1.58,1.58,0,0,0-1.39-1.72l-1-.1h-.06a2,2,0,0,0-1.14-1.4l0-.14C47.51,11,46,8.54,44,5.43,41.85,1.88,35.86.3,28.43,1.29a6.73,6.73,0,0,0-4.66,2.25,3.91,3.91,0,0,0-.71,1.53,3.56,3.56,0,0,0-2.13,1.14c-2,2.21-1.92,6.94-1.52,9.49A2,2,0,0,0,18.48,17H18.4l-1,.1A1.59,1.59,0,0,0,16,18.82L16.38,23A1.6,1.6,0,0,0,17,24.08a1.48,1.48,0,0,0,1,.35h.15l1-.1h0a1.91,1.91,0,0,0,.65,1A2,2,0,0,0,21,25.8h.18l.16,0a19.26,19.26,0,0,0,.85,3.37,13.41,13.41,0,0,0,2.6,4.24V35L23,37.83l-9.31,3.76a12.57,12.57,0,0,0-7.54,11L5.7,64a1,1,0,0,0,1,1H59.3a1,1,0,0,0,1-1ZM32.18,40.14c-1.85-1.52-3.84-3.28-4.8-4.28a9.05,9.05,0,0,0,11,.1c-1,1-3,2.72-4.81,4.18Zm3.38,1a48.28,48.28,0,0,0,4.52-4l1,1.57L38.6,44.45A19,19,0,0,0,35.56,41.12ZM45,23.8l-.88-.06h0l.57-6.4.27,0H45l.58,0Zm3-4.75-.28,3.34-.45-.05h-.12L47.43,19h0ZM22.39,7.57A1.68,1.68,0,0,1,23.88,7a1,1,0,0,0,.81-.3A1,1,0,0,0,25,5.92c0-.21-.1-2.13,3.72-2.64,6.55-.88,11.91.38,13.66,3.2s3,4.87,2.11,8.5c0,.13-.05.26-.08.39a2,2,0,0,0-1.16.61,13.89,13.89,0,0,0-1.08-3.15c-1.73-3.22-4.32-3.13-6.22-3.06l-.46,0a17.89,17.89,0,0,0-1.85.18c-2,.27-4.73.63-7.37-.48a1,1,0,0,0-.94.09,9.25,9.25,0,0,0-3.7,5.78h-.22C21,12.85,21.06,9,22.39,7.57ZM18.34,22.39l-.28-3.34.47-.05h0l.31,3.35a.4.4,0,0,0-.11,0ZM21,23.8l-.61-6.38.89-.1.62,6.4Zm2.25,1.38.17-.17a2,2,0,0,0,.45-1.45l-.47-5.13c0-.72.06-1.45.09-2.12A6.91,6.91,0,0,1,26,11.55a16.16,16.16,0,0,0,7.85.41c.65-.09,1.21-.16,1.64-.18H36c1.82-.06,3.25-.12,4.39,2,1,1.9,1.64,6.42,1.81,8.89l-.08.9a1.89,1.89,0,0,0,.22,1.1l0,0a1.3,1.3,0,0,0-.1.25c-.63,2.62-4.5,4.22-6.73,4.85a2.51,2.51,0,1,0,.17,2,17.2,17.2,0,0,0,6-2.77,14.78,14.78,0,0,1-4.19,5.16,7.08,7.08,0,0,1-8.92,0,14.2,14.2,0,0,1-4.43-5.73A17.62,17.62,0,0,1,23.27,25.18ZM33.8,31a.51.51,0,1,1-.51-.51A.51.51,0,0,1,33.8,31Zm-8,6.12A45.06,45.06,0,0,0,30.13,41a14.71,14.71,0,0,0-3,3l-2.35-5.34ZM8.13,52.69a10.44,10.44,0,0,1,2.14-6,10.56,10.56,0,0,1,4.17-3.28l8.69-3.52,2.46,5.57a1.47,1.47,0,0,0,1.12,1.12,1.84,1.84,0,0,0,.33,0,1.5,1.5,0,0,0,1.29-.74,10,10,0,0,1,1-1.33l1.4,1.53L29,63H7.74ZM31,63l1.67-17.15a1,1,0,0,0-.25-.77L30.7,43.16a15.19,15.19,0,0,1,1.33-1h1.64c.26.21.68.56,1.16,1l-1.52,1.93a1,1,0,0,0-.21.72L34.83,63Zm5.8,0L35.13,46l1.09-1.38a13.45,13.45,0,0,1,1.2,1.68,1.48,1.48,0,0,0,1.29.75A1.86,1.86,0,0,0,39,47a1.47,1.47,0,0,0,1.12-1.13l2.52-6,9.17,3.68a10.09,10.09,0,0,1,3.92,3,10,10,0,0,1,2.08,5.73L58.26,63Z"></path></svg>