<svg xmlns="http://www.w3.org/2000/svg" width="36" height="36" viewBox="0 0 48 48" id="travel"><path d="M-82.997 441.116a.64.64 0 0 0-.641.641v.877h.427v-.705c0-.208.195-.376.44-.384.201.008.224.212.63.212.405 0 .427-.203.629-.212.245.008.439.176.439.384v.705h.428v-.877a.64.64 0 0 0-.642-.641h-1.71zm-2.768 1.782v1.19c0 .072-.06.13-.133.13h-1.15v4.012h1.15c.074 0 .133.06.133.133v1.15h.377v-6.615h-.377zm1.283 0v1.364a.668.668 0 0 1 .616-.414.67.67 0 0 1 .667.668.669.669 0 0 1-.667.666.668.668 0 0 1-.616-.413v3.412l.856.052a.132.132 0 0 1 .106.197l-.534.926a.133.133 0 0 1-.227.008l-.2-.307v.457h4.439v-3.669l-.092.16a.132.132 0 0 1-.224.009l-.66-.999a.132.132 0 0 1 .091-.205.125.125 0 0 1 .028 0l.857.051v-1.963h-.383v.032c0 .189-.156.345-.346.345h-.214a.348.348 0 0 1-.346-.345v-.032h-1.647v.032c0 .189-.156.345-.346.345h-.213a.348.348 0 0 1-.345-.345v-.032h-.6zm.864 0v.031a.08.08 0 0 0 .082.082h.212a.08.08 0 0 0 .083-.082v-.031h-.377zm2.55 0v.031c0 .048.035.082.082.082h.215c.048 0 .08-.034.08-.082v-.031h-.376zm1.932 0v6.616h.377v-1.151c0-.073.058-.132.13-.133h1.152v-4.012h-1.151a.132.132 0 0 1-.131-.13v-1.19h-.377zm-7.187.04a.72.72 0 0 0-.725.722v.295h1.02v-1.018h-.295zm1.2 0v6.576h.08v-.182h.216v.182h.082v-6.577h-.082v.196h-.215v-.196h-.08zm5.344 0v6.576h.083v-.182h.215v.182h.08v-6.577h-.08v.196h-.215v-.196h-.083zm1.284 0v1.017h1.018v-.295a.718.718 0 0 0-.723-.723h-.295zm-8.043.294a.214.214 0 1 1 0 .428.214.214 0 0 1 0-.428zm8.552 0a.214.214 0 1 1 0 .428.214.214 0 0 1 0-.428zm-7.056.114h.215v.215h-.215v-.215zm5.346 0h.215v.215h-.215v-.215zm-5.346.427h.215v.213h-.215v-.213zm5.346 0h.215v.213h-.215v-.213zm-5.346.428h.215v.213h-.215v-.213zm5.346 0h.215v.213h-.215v-.213zm-5.346.428h.215v.213h-.215v-.213zm5.346 0h.215v.213h-.215v-.213zm-5.346.428h.215v.212h-.215v-.212zm5.346 0h.215v.212h-.215v-.212zm1.068.18h.855a.132.132 0 0 1 .133.132v1.498c0 .072-.06.13-.133.13h-.855a.132.132 0 0 1-.131-.13v-1.498c0-.072.059-.13.13-.131zm-6.414.247h.215v.213h-.215v-.213zm5.346 0h.215v.213h-.215v-.213zm-6.856.182h.869c.073 0 .132.058.133.13v.856c0 .074-.06.133-.133.133h-.855a.132.132 0 0 1-.133-.133v-.855c0-.068.052-.124.12-.131zm1.51.246h.215v.213h-.215v-.213zm5.346 0h.215v.213h-.215v-.213zm-5.346.428h.215v.213h-.215v-.213zm5.346 0h.215v.213h-.215v-.213zm-2.356.18c.022 0 .044.007.063.018l1.297.748a.132.132 0 0 1 .047.18l-.428.742a.132.132 0 0 1-.18.05l-1.296-.75a.132.132 0 0 1-.048-.18l.428-.741a.132.132 0 0 1 .117-.066zm-2.99.248h.215v.212h-.215v-.212zm5.346 0h.215v.212h-.215v-.212zm-5.346.425h.215v.215h-.215v-.215zm5.346 0h.215v.215h-.215v-.215zm-5.346.428h.215v.215h-.215v-.215zm5.346 0h.215v.215h-.215v-.215zm-5.346.428h.215v.215h-.215v-.215zm5.346 0h.215v.215h-.215v-.215zm-5.346.427h.215v.215h-.215v-.215zm5.346 0h.215v.215h-.215v-.215zm-7.352.02v.291a.72.72 0 0 0 .725.727h.295v-1.018h-1.02zm8.553 0v1.018h.295a.72.72 0 0 0 .723-.727v-.291h-1.018zm-8.043.295a.214.214 0 1 1 0 .427.214.214 0 0 1 0-.427zm8.552 0a.214.214 0 1 1 0 .427.214.214 0 0 1 0-.427zm-7.056.113h.215v.215h-.215v-.215zm5.346 0h.215v.215h-.215v-.215z" color="#000" font-family="sans-serif" font-weight="400" overflow="visible" transform="translate(335 -1658.95) scale(3.77953)" style="line-height:normal;text-indent:0;text-align:start;text-decoration-line:none;text-decoration-style:solid;text-decoration-color:#000;text-transform:none;block-progression:tb;isolation:auto;mix-blend-mode:normal"></path></svg>