<svg xmlns="http://www.w3.org/2000/svg" width="32" height="32"  viewBox="0 0 28 28" id="weather"><path style="text-indent:0;text-align:start;line-height:normal;text-transform:none;block-progression:tb;marker:none;-inkscape-font-specification:Sans" d="M13 0C5.827 0 0 5.82 0 13s5.827 13 13 13 13-5.82 13-13S20.173 0 13 0zm0 .75C19.763.75 25.25 6.231 25.25 13S19.763 25.219 13 25.219.75 19.769.75 13C.75 6.231 6.237.75 13 .75zm.125 4.781c-2.466 0-4.502 2.006-4.563 4.469-.069-.005-.14-.031-.218-.031-1.802 0-3.313 1.528-3.313 3.312 0 1.683 1.271 3.079 2.969 3.281a.337.337 0 0 0 .156.032H11.875l-.688 3.437c-.034.164.035.341.188.407.045.018.11.03.156.03a.339.339 0 0 0 .281-.155l2.563-3.72h3.594c1.678-.094 3-1.5 3-3.187 0-1.782-1.388-3.187-3.157-3.187-.047 0-.08.029-.125.031.006-.045 0-.112 0-.156a4.565 4.565 0 0 0-4.562-4.563zm0 .719a3.832 3.832 0 0 1 3.844 3.844c0 .064.01.121 0 .187a2.195 2.195 0 0 0-.032.344.38.38 0 0 0 .125.281.33.33 0 0 0 .282.063c.15-.025.293-.031.468-.031a2.444 2.444 0 0 1 2.47 2.468 2.467 2.467 0 0 1-2.313 2.469h-3.125l.781-1.125a.374.374 0 0 0 .031-.375.355.355 0 0 0-.312-.188h-1.781l1.406-2.062c.074-.107.06-.229 0-.344a.355.355 0 0 0-.313-.187h-3.062a.352.352 0 0 0-.344.25l-1.125 4.031H8.25c-.033-.014-.057.003-.094 0-1.384-.127-2.437-1.244-2.437-2.594 0-1.404 1.204-2.594 2.625-2.594.185 0 .344 0 .562.032.1.015.205.003.281-.063a.39.39 0 0 0 .126-.281c0-.057-.022-.12-.032-.188-.005-.031 0-.065 0-.093a3.842 3.842 0 0 1 3.844-3.844zm-1.281 6.031H14l-1.406 2.063a.374.374 0 0 0-.031.375.355.355 0 0 0 .312.187h1.813l-2.47 3.594.438-2.188a.325.325 0 0 0-.062-.28c-.066-.083-.176-.157-.281-.157h-1.47l1-3.594z"  font-family="Sans" font-weight="400" overflow="visible"></path></svg>